<svg width="6" height="8" viewBox="0 0 6 8" xmlns="http://www.w3.org/2000/svg">
<path fill-rule="evenodd" clip-rule="evenodd" d="M2.3043 1.62716C2.56343 1.47487 2.86809 1.4192 3.16433 1.47002C3.46057 1.52083 3.72927 1.67485 3.92283 1.90479C4.1164 2.13473 4.22234 2.42575 4.22189 2.72632L4.22189 2.72727C4.22189 3.02581 3.98956 3.33704 3.55072 3.6296C3.35067 3.76297 3.14608 3.86571 2.98901 3.93552C2.91137 3.97003 2.84756 3.99551 2.80465 4.01186C2.78325 4.02001 2.76721 4.02583 2.75742 4.02931L2.74726 4.03287C2.41427 4.14427 2.23439 4.5044 2.34546 4.8376C2.4566 5.17101 2.81698 5.35121 3.1504 5.24007L2.94916 4.63636C3.1504 5.24007 3.15101 5.23986 3.1512 5.2398L3.15217 5.23947L3.15465 5.23864L3.16169 5.23623L3.18379 5.22849C3.20197 5.22203 3.22694 5.21294 3.25774 5.2012C3.31923 5.17778 3.40457 5.1436 3.50591 5.09856C3.70679 5.00928 3.97948 4.87339 4.2567 4.68857C4.77231 4.34484 5.49433 3.70171 5.49462 2.72785C5.49543 2.12685 5.28355 1.54494 4.8965 1.08515C4.50937 0.625268 3.97198 0.317235 3.3795 0.215609C2.78701 0.113983 2.17769 0.225321 1.65943 0.529905C1.14117 0.834489 0.747434 1.31266 0.547952 1.87973C0.431324 2.21127 0.605544 2.57458 0.937083 2.69121C1.26862 2.80784 1.63193 2.63362 1.74856 2.30208C1.8483 2.01854 2.04517 1.77946 2.3043 1.62716ZM3.63641 7.18182C3.63641 7.53327 3.3515 7.81818 3.00005 7.81818C2.6486 7.81818 2.36369 7.53327 2.36369 7.18182C2.36369 6.83036 2.6486 6.54545 3.00005 6.54545C3.3515 6.54545 3.63641 6.83036 3.63641 7.18182Z"/>
</svg>
